# xmcd
#
# Track frame offsets:
#	150
#	15277
#	38290
#	59959
#	74177
#	88290
#	101133
#	112532
#	143648
#	160168
#	182211
#	210706
#	267276
#	290505
#	299843
#	315215
#	330409
#
# Disc length: 4680 seconds
#
# Revision: 1
# Processed by: cddbd v1.5.2PL0 Copyright (c) Steve Scherf et al.
# Submitted via: audiograbber 1.83.01
#
DISCID=fc124611
DTITLE=Rail 21 - Blus Guitar
DYEAR=2006
DGENRE=Blues Rock
TTITLE0=John Mayall With Peter Green - Double Trouble
TTITLE1=Peter Green - Cryin' Won't Bring You Back
TTITLE2=Fleetwood Mac - Hypnotized
TTITLE3=Peter Green's Fleetwood Mac - Albatross (Acoustique)
TTITLE4=Peter Green's Fleetwood Mac - Albatross
TTITLE5=Peter Green's Fleetwood Mac - Black Magic Woman (l'original)
TTITLE6=Peter Green's Fleetwood Mac - The World Keeps On Turning (Acoustique)
TTITLE7=Peter Frampton - While My Guitar Gently Weeps
TTITLE8=Stevie Ray Vaughn - Pride And Joy
TTITLE9=BTO - Takin' care of business
TTITLE10=Bombers - Don't Stop The Music
TTITLE11=Bombers - The Mexican
TTITLE12=Blue Oyster Cult - Dont Fear The Reaper
TTITLE13=California Guitar Trio - Misirlou (pblq)
TTITLE14=Vincent Vallières - Le temps passe
TTITLE15=America - America
TTITLE16=Black Sabbath - Planet Caravan
EXTD=Bombers: groupe québécois de Walter Rossi et Billy Workman, frère de Nanet
EXTD=te.
EXTT0=
EXTT1=
EXTT2=
EXTT3=
EXTT4=
EXTT5=
EXTT6=
EXTT7=
EXTT8=
EXTT9=
EXTT10=
EXTT11=
EXTT12=
EXTT13=
EXTT14=
EXTT15=
EXTT16=
PLAYORDER=
